<svg id="Camada_1" data-name="Camada 1" xmlns="http://www.w3.org/2000/svg" viewBox="0 0 58.94 52.2"><defs><style>.cls-1{fill:#fff;}</style></defs><path class="cls-1" d="M22.56,46.3a4.9,4.9,0,1,1-4.89,4.9A4.9,4.9,0,0,1,22.56,46.3Z" transform="translate(-0.53 -3.9)"/><path class="cls-1" d="M43.93,46.3A4.9,4.9,0,1,1,39,51.2,4.9,4.9,0,0,1,43.93,46.3Z" transform="translate(-0.53 -3.9)"/><path class="cls-1" d="M56.4,19.45H26.18a2.38,2.38,0,0,0-1.79,2.36,2.67,2.67,0,0,0,1.79,2.54h27.1l-1.53,5.16H25.11a2.22,2.22,0,0,0-1.66,2.19,2.5,2.5,0,0,0,1.66,2.37H50.4L49,38.89H21.47L19.64,24.34l-.59-4.9s-.52-4.53-.83-6.4-5-4.23-15.11-9c-2.37-1-4.36,3.34,0,5.62l8,3.72s1.85,1.07,2,2.52,3.39,25.42,3.39,25.42.13,3.33,3.16,3.33h30.4c2.53,0,3-2.66,3-2.66l6-17.89S60.91,19.45,56.4,19.45Z" transform="translate(-0.53 -3.9)"/></svg>