<svg width="89" height="50" viewBox="0 0 89 50" fill="none" xmlns="http://www.w3.org/2000/svg">
<path d="M35.9501 25.0588L29.2678 31.7941C29.8368 32.4706 30.114 33.3235 30.114 34.2794V34.4118C30.114 37.2647 27.765 38.8676 23.6943 38.8676H22.2353L11.4678 49.7206H25.1972C36.7234 49.7206 43.4787 44.647 43.4787 36.2941V36.1618C43.4787 30.3677 40.6044 27.0735 35.9501 25.0588ZM13.3354 29.8971H20.7763L40.8232 9.69119C40.3125 8.01472 39.4225 6.60292 38.2407 5.42645C35.4102 2.57351 31.1353 1.04413 25.0658 1.04413H0.291748V49.7206H1.10879L13.3208 37.4117V29.8971H13.3354ZM13.3354 11.8971H22.031C26.0287 11.8971 28.1006 13.4264 28.1006 16.0735V16.2059C28.1006 19.0588 25.8245 20.4558 21.7538 20.4558H13.3354V11.8971Z" fill="white"/>
<path d="M88.2705 12.8676V1.04413H59.7758L49.6357 11.2646V49.7206H63.0148V32.3382H85.8631V21.147H63.0148V12.8676H88.2705Z" fill="white"/>
</svg>
